<mxfile host="app.diagrams.net" modified="2024-06-12T12:38:22.520Z" agent="Mozilla/5.0 (Windows NT 10.0; Win64; x64) AppleWebKit/537.36 (KHTML, like Gecko) Chrome/125.0.0.0 Safari/537.36" version="24.5.3" etag="JH7q0fA0kAANfcU_owyd" type="github">
  <diagram name="PÃ¡gina-1" id="YkIV3j8VZzNHzlD3Iy2h">
    <mxGraphModel>
      <root>
        <mxCell id="0" />
        <mxCell id="1" parent="0" />
      </root>
    </mxGraphModel>
  </diagram>
</mxfile>
